<?xml version="1.0" encoding="UTF-8"?>
<!DOCTYPE svg PUBLIC "-//W3C//DTD SVG 1.1//EN" "http://www.w3.org/Graphics/SVG/1.1/DTD/svg11.dtd">
<svg xmlns="http://www.w3.org/2000/svg" version="1.1" width="744px" height="978px" style="shape-rendering:geometricPrecision; text-rendering:geometricPrecision; image-rendering:optimizeQuality; fill-rule:evenodd; clip-rule:evenodd" xmlns:xlink="http://www.w3.org/1999/xlink">
<g><path style="opacity:0.997" fill="#0192dc" d="M 343.5,-0.5 C 367.833,-0.5 392.167,-0.5 416.5,-0.5C 421.856,0.354713 427.189,1.35471 432.5,2.5C 435.909,3.90341 439.575,4.57007 443.5,4.5C 448.092,4.88157 452.425,5.88157 456.5,7.5C 459.854,9.25759 463.521,10.2576 467.5,10.5C 479.677,13.336 491.344,17.336 502.5,22.5C 504.426,24.2927 506.759,25.2927 509.5,25.5C 522.686,31.2521 535.019,38.2521 546.5,46.5C 546.973,47.9063 547.973,48.573 549.5,48.5C 549.973,49.9063 550.973,50.573 552.5,50.5C 558.81,54.8154 564.81,59.4821 570.5,64.5C 570.973,65.9063 571.973,66.573 573.5,66.5C 588.202,78.8684 601.536,92.5351 613.5,107.5C 613.427,109.027 614.094,110.027 615.5,110.5C 620.186,115.858 624.519,121.525 628.5,127.5C 628.427,129.027 629.094,130.027 630.5,130.5C 631.433,133.37 633.1,135.704 635.5,137.5C 642.254,147.334 648.254,157.667 653.5,168.5C 653.427,170.027 654.094,171.027 655.5,171.5C 663.225,185.622 669.892,200.289 675.5,215.5C 675.229,217.38 675.896,218.713 677.5,219.5C 681.398,229.97 684.731,240.636 687.5,251.5C 688.231,256.438 689.565,261.105 691.5,265.5C 692.612,267.599 693.279,269.933 693.5,272.5C 693.5,339.167 693.5,405.833 693.5,472.5C 651.542,496.267 608.542,518.101 564.5,538C 532.806,547.724 500.472,554.89 467.5,559.5C 462.454,559.265 457.787,560.265 453.5,562.5C 452.5,562.5 451.5,562.5 450.5,562.5C 446.511,562.116 442.845,562.783 439.5,564.5C 439.167,564.5 438.833,564.5 438.5,564.5C 431.889,564.547 425.556,565.547 419.5,567.5C 366.915,573.958 314.248,579.625 261.5,584.5C 256.566,584.229 251.9,584.896 247.5,586.5C 211.498,589.719 176.498,597.219 142.5,609C 114.407,622.123 88.7406,638.79 65.5,659C 42.671,678.997 20.671,699.83 -0.5,721.5C -0.5,639.833 -0.5,558.167 -0.5,476.5C 16.1667,476.5 32.8333,476.5 49.5,476.5C 49.5,407.167 49.5,337.833 49.5,268.5C 49.7726,259.635 51.2726,250.968 54,242.5C 58.3956,228.735 63.5623,215.401 69.5,202.5C 71.1042,201.713 71.7709,200.38 71.5,198.5C 71.5,198.167 71.5,197.833 71.5,197.5C 72.9063,197.027 73.573,196.027 73.5,194.5C 79.073,182.349 85.4063,170.683 92.5,159.5C 95.7922,156.943 98.1256,153.609 99.5,149.5C 101.866,146.143 104.199,142.81 106.5,139.5C 110.262,136.071 113.262,132.071 115.5,127.5C 118.821,122.848 122.487,118.515 126.5,114.5C 128.262,113.738 129.262,112.404 129.5,110.5C 129.5,109.833 129.833,109.5 130.5,109.5C 131.833,108.833 132.833,107.833 133.5,106.5C 136.498,103.333 139.331,99.9997 142,96.5C 143.77,94.2585 145.937,92.5918 148.5,91.5C 151.167,89.5 153.5,87.1667 155.5,84.5C 160.512,79.4897 165.845,74.823 171.5,70.5C 173.749,69.9202 175.415,68.5869 176.5,66.5C 178.404,66.2624 179.738,65.2624 180.5,63.5C 184.651,60.2562 188.984,57.2562 193.5,54.5C 195.853,53.6597 197.853,52.3264 199.5,50.5C 202.719,49.9307 205.052,48.264 206.5,45.5C 215.055,40.055 224.055,35.3883 233.5,31.5C 235.819,31.0075 237.819,30.0075 239.5,28.5C 241.38,28.7709 242.713,28.1042 243.5,26.5C 260.801,18.7328 278.801,12.7328 297.5,8.5C 302.12,8.25975 306.453,7.25975 310.5,5.5C 321.41,2.95954 332.41,0.959544 343.5,-0.5 Z M 425.5,157.5 C 427.509,159.065 429.843,160.065 432.5,160.5C 444.727,165.9 456.394,172.234 467.5,179.5C 468.262,181.262 469.596,182.262 471.5,182.5C 472.585,184.587 474.251,185.92 476.5,186.5C 477.5,188.167 478.833,189.5 480.5,190.5C 484.5,193.833 488.167,197.5 491.5,201.5C 493.5,204.167 495.833,206.5 498.5,208.5C 498.5,208.833 498.5,209.167 498.5,209.5C 499.167,210.833 500.167,211.833 501.5,212.5C 504.167,216.167 506.833,219.833 509.5,223.5C 509.427,225.027 510.094,226.027 511.5,226.5C 511.328,227.492 511.662,228.158 512.5,228.5C 512.427,230.027 513.094,231.027 514.5,231.5C 516.583,236 518.916,240.334 521.5,244.5C 522.075,247.912 523.408,250.912 525.5,253.5C 527.167,258.833 528.833,264.167 530.5,269.5C 530.5,338.167 530.5,406.833 530.5,475.5C 423.833,475.5 317.167,475.5 210.5,475.5C 210.5,407.5 210.5,339.5 210.5,271.5C 212.062,265.141 214.062,258.808 216.5,252.5C 218.592,249.912 219.925,246.912 220.5,243.5C 222.75,240.001 224.75,236.335 226.5,232.5C 228.25,231.341 229.25,229.674 229.5,227.5C 234.007,219.977 239.34,212.977 245.5,206.5C 246.401,205.71 247.068,204.71 247.5,203.5C 251.664,200.168 255.331,196.335 258.5,192C 262.975,189.35 266.975,186.183 270.5,182.5C 271.71,182.068 272.71,181.401 273.5,180.5C 278.897,176.439 284.564,172.773 290.5,169.5C 292.674,169.25 294.341,168.25 295.5,166.5C 300.081,164.87 304.414,162.87 308.5,160.5C 312.137,159.737 315.47,158.403 318.5,156.5C 354.277,145.566 389.944,145.899 425.5,157.5 Z"/></g>
<g><path style="opacity:0.069" fill="#011f31" d="M 432.5,2.5 C 436.425,2.42993 440.091,3.09659 443.5,4.5C 439.575,4.57007 435.909,3.90341 432.5,2.5 Z"/></g>
<g><path style="opacity:0.158" fill="#03334d" d="M 310.5,5.5 C 306.453,7.25975 302.12,8.25975 297.5,8.5C 301.547,6.74025 305.88,5.74025 310.5,5.5 Z"/></g>
<g><path style="opacity:0.21" fill="#033c59" d="M 456.5,7.5 C 460.479,7.74241 464.146,8.74241 467.5,10.5C 463.521,10.2576 459.854,9.25759 456.5,7.5 Z"/></g>
<g><path style="opacity:0.024" fill="#071e2b" d="M 502.5,22.5 C 505.241,22.7073 507.574,23.7073 509.5,25.5C 506.759,25.2927 504.426,24.2927 502.5,22.5 Z"/></g>
<g><path style="opacity:0.173" fill="#013451" d="M 243.5,26.5 C 242.713,28.1042 241.38,28.7709 239.5,28.5C 240.514,27.3263 241.847,26.6596 243.5,26.5 Z"/></g>
<g><path style="opacity:0.051" fill="#083a58" d="M 239.5,28.5 C 237.819,30.0075 235.819,31.0075 233.5,31.5C 234.911,29.461 236.911,28.461 239.5,28.5 Z"/></g>
<g><path style="opacity:1" fill="#fbfdfe" d="M 116.5,230.5 C 118.943,225.5 120.61,220.166 121.5,214.5C 157.251,113.617 228.251,56.4501 334.5,43C 349.811,41.5966 365.144,41.2633 380.5,42C 408.273,44.356 435.607,49.0226 462.5,56C 474.084,59.7969 485.418,64.1302 496.5,69C 480.448,67.3254 464.448,64.992 448.5,62C 393.371,53.3445 339.704,58.6778 287.5,78C 258.248,90.2898 231.915,106.956 208.5,128C 167.189,167.485 134.355,212.985 110,264.5C 109.856,260.496 110.189,256.496 111,252.5C 113.157,245.204 114.991,237.871 116.5,230.5 Z"/></g>
<g><path style="opacity:0.027" fill="#06283b" d="M 546.5,46.5 C 548.027,46.427 549.027,47.0937 549.5,48.5C 547.973,48.573 546.973,47.9063 546.5,46.5 Z"/></g>
<g><path style="opacity:0.412" fill="#02466a" d="M 206.5,45.5 C 205.052,48.264 202.719,49.9307 199.5,50.5C 201.531,48.4776 203.865,46.8109 206.5,45.5 Z"/></g>
<g><path style="opacity:0.114" fill="#093249" d="M 549.5,48.5 C 551.027,48.427 552.027,49.0937 552.5,50.5C 550.973,50.573 549.973,49.9063 549.5,48.5 Z"/></g>
<g><path style="opacity:0.169" fill="#064468" d="M 199.5,50.5 C 197.853,52.3264 195.853,53.6597 193.5,54.5C 194.802,52.1782 196.802,50.8449 199.5,50.5 Z"/></g>
<g><path style="opacity:0.106" fill="#0c2e47" d="M 180.5,63.5 C 179.738,65.2624 178.404,66.2624 176.5,66.5C 177.262,64.7376 178.596,63.7376 180.5,63.5 Z"/></g>
<g><path style="opacity:0.004" fill="#031422" d="M 570.5,64.5 C 572.027,64.427 573.027,65.0937 573.5,66.5C 571.973,66.573 570.973,65.9063 570.5,64.5 Z"/></g>
<g><path style="opacity:0.09" fill="#0b2e45" d="M 176.5,66.5 C 175.415,68.5869 173.749,69.9202 171.5,70.5C 172.585,68.4131 174.251,67.0798 176.5,66.5 Z"/></g>
<g><path style="opacity:0.157" fill="#092334" d="M 155.5,84.5 C 153.5,87.1667 151.167,89.5 148.5,91.5C 149.833,88.1667 152.167,85.8333 155.5,84.5 Z"/></g>
<g><path style="opacity:0.067" fill="#092333" d="M 133.5,106.5 C 132.833,107.833 131.833,108.833 130.5,109.5C 130.5,107.5 131.5,106.5 133.5,106.5 Z"/></g>
<g><path style="opacity:0.129" fill="#071b27" d="M 613.5,107.5 C 614.906,107.973 615.573,108.973 615.5,110.5C 614.094,110.027 613.427,109.027 613.5,107.5 Z"/></g>
<g><path style="opacity:0.165" fill="#0a283b" d="M 129.5,110.5 C 129.262,112.404 128.262,113.738 126.5,114.5C 126.738,112.596 127.738,111.262 129.5,110.5 Z"/></g>
<g><path style="opacity:0.098" fill="#0b384d" d="M 628.5,127.5 C 629.906,127.973 630.573,128.973 630.5,130.5C 629.094,130.027 628.427,129.027 628.5,127.5 Z"/></g>
<g><path style="opacity:0.294" fill="#0a324a" d="M 115.5,127.5 C 113.262,132.071 110.262,136.071 106.5,139.5C 108.738,134.929 111.738,130.929 115.5,127.5 Z"/></g>
<g><path style="opacity:0.047" fill="#082638" d="M 630.5,130.5 C 632.9,132.296 634.567,134.63 635.5,137.5C 633.1,135.704 631.433,133.37 630.5,130.5 Z"/></g>
<g><path style="opacity:0.459" fill="#05486d" d="M 99.5,149.5 C 98.1256,153.609 95.7922,156.943 92.5,159.5C 94.3535,155.779 96.6869,152.446 99.5,149.5 Z"/></g>
<g><path style="opacity:0.186" fill="#054364" d="M 318.5,156.5 C 315.47,158.403 312.137,159.737 308.5,160.5C 311.37,158.206 314.703,156.872 318.5,156.5 Z"/></g>
<g><path style="opacity:0.122" fill="#063f61" d="M 425.5,157.5 C 428.346,157.552 430.68,158.552 432.5,160.5C 429.843,160.065 427.509,159.065 425.5,157.5 Z"/></g>
<g><path style="opacity:0.024" fill="#081820" d="M 295.5,166.5 C 294.341,168.25 292.674,169.25 290.5,169.5C 291.659,167.75 293.326,166.75 295.5,166.5 Z"/></g>
<g><path style="opacity:0.18" fill="#051d2c" d="M 653.5,168.5 C 654.906,168.973 655.573,169.973 655.5,171.5C 654.094,171.027 653.427,170.027 653.5,168.5 Z"/></g>
<g><path style="opacity:0.314" fill="#0d3a56" d="M 467.5,179.5 C 469.404,179.738 470.738,180.738 471.5,182.5C 469.596,182.262 468.262,181.262 467.5,179.5 Z"/></g>
<g><path style="opacity:0.078" fill="#0b2f47" d="M 273.5,180.5 C 272.71,181.401 271.71,182.068 270.5,182.5C 270.821,180.952 271.821,180.285 273.5,180.5 Z"/></g>
<g><path style="opacity:0.294" fill="#0b3b53" d="M 471.5,182.5 C 473.749,183.08 475.415,184.413 476.5,186.5C 474.251,185.92 472.585,184.587 471.5,182.5 Z"/></g>
<g><path style="opacity:0.314" fill="#0e354b" d="M 476.5,186.5 C 478.833,186.833 480.167,188.167 480.5,190.5C 478.833,189.5 477.5,188.167 476.5,186.5 Z"/></g>
<g><path style="opacity:0.051" fill="#063951" d="M 73.5,194.5 C 73.573,196.027 72.9063,197.027 71.5,197.5C 71.427,195.973 72.0937,194.973 73.5,194.5 Z"/></g>
<g><path style="opacity:0.157" fill="#003149" d="M 71.5,198.5 C 71.7709,200.38 71.1042,201.713 69.5,202.5C 69.6596,200.847 70.3263,199.514 71.5,198.5 Z"/></g>
<g><path style="opacity:0.094" fill="#0b364f" d="M 491.5,201.5 C 494.833,202.833 497.167,205.167 498.5,208.5C 495.833,206.5 493.5,204.167 491.5,201.5 Z"/></g>
<g><path style="opacity:0.086" fill="#053147" d="M 247.5,203.5 C 247.068,204.71 246.401,205.71 245.5,206.5C 245.285,204.821 245.952,203.821 247.5,203.5 Z"/></g>
<g><path style="opacity:0.11" fill="#112e44" d="M 498.5,209.5 C 500.5,209.5 501.5,210.5 501.5,212.5C 500.167,211.833 499.167,210.833 498.5,209.5 Z"/></g>
<g><path style="opacity:1" fill="#9dd3f1" d="M 121.5,214.5 C 120.61,220.166 118.943,225.5 116.5,230.5C 117.39,224.834 119.057,219.5 121.5,214.5 Z"/></g>
<g><path style="opacity:0.031" fill="#041824" d="M 675.5,215.5 C 676.674,216.514 677.34,217.847 677.5,219.5C 675.896,218.713 675.229,217.38 675.5,215.5 Z"/></g>
<g><path style="opacity:0.004" fill="#0d202c" d="M 509.5,223.5 C 510.906,223.973 511.573,224.973 511.5,226.5C 510.094,226.027 509.427,225.027 509.5,223.5 Z"/></g>
<g><path style="opacity:0.059" fill="#082436" d="M 229.5,227.5 C 229.25,229.674 228.25,231.341 226.5,232.5C 226.75,230.326 227.75,228.659 229.5,227.5 Z"/></g>
<g><path style="opacity:0.027" fill="#052031" d="M 512.5,228.5 C 513.906,228.973 514.573,229.973 514.5,231.5C 513.094,231.027 512.427,230.027 512.5,228.5 Z"/></g>
<g><path style="opacity:0.21" fill="#02517a" d="M 521.5,244.5 C 523.607,247.057 524.941,250.057 525.5,253.5C 523.408,250.912 522.075,247.912 521.5,244.5 Z"/></g>
<g><path style="opacity:0.196" fill="#05547e" d="M 220.5,243.5 C 219.925,246.912 218.592,249.912 216.5,252.5C 217.059,249.057 218.393,246.057 220.5,243.5 Z"/></g>
<g><path style="opacity:0.194" fill="#084466" d="M 687.5,251.5 C 689.746,255.805 691.08,260.471 691.5,265.5C 689.565,261.105 688.231,256.438 687.5,251.5 Z"/></g>
<g><path style="opacity:0.086" fill="#00334c" d="M 49.5,268.5 C 49.5,337.833 49.5,407.167 49.5,476.5C 32.8333,476.5 16.1667,476.5 -0.5,476.5C -0.5,476.167 -0.5,475.833 -0.5,475.5C 15.8333,475.5 32.1667,475.5 48.5,475.5C 48.1675,406.331 48.5008,337.331 49.5,268.5 Z"/></g>
<g><path style="opacity:0.243" fill="#023149" d="M 693.5,272.5 C 694.499,338.665 694.832,404.998 694.5,471.5C 695.833,471.5 697.167,471.5 698.5,471.5C 697.081,472.451 695.415,472.784 693.5,472.5C 693.5,405.833 693.5,339.167 693.5,272.5 Z"/></g>
<g><path style="opacity:1" fill="#fefefe" d="M 743.5,469.5 C 743.5,492.833 743.5,516.167 743.5,539.5C 709.381,571.234 671.715,598.067 630.5,620C 549.262,661.861 463.928,692.861 374.5,713C 376.74,713.977 379.073,714.477 381.5,714.5C 386.25,716.031 391.25,716.698 396.5,716.5C 402.189,716.532 407.855,716.866 413.5,717.5C 430.328,718.662 447.328,718.828 464.5,718C 474.42,717.733 484.087,716.566 493.5,714.5C 518.064,711.187 542.397,706.187 566.5,699.5C 575.696,697.659 584.362,694.659 592.5,690.5C 622.96,679.437 652.293,665.937 680.5,650C 696.267,641.783 712.267,634.116 728.5,627C 730.579,626.192 732.579,626.359 734.5,627.5C 709.186,677.646 672.853,717.813 625.5,748C 596.075,766.379 565.075,781.546 532.5,793.5C 520.017,797.66 507.683,801.993 495.5,806.5C 484.894,809.368 474.228,812.034 463.5,814.5C 459.838,814.723 456.505,815.723 453.5,817.5C 418.789,824.841 383.789,830.508 348.5,834.5C 343.234,834.189 338.234,834.855 333.5,836.5C 332.167,836.5 330.833,836.5 329.5,836.5C 315.487,836.911 301.487,837.578 287.5,838.5C 277.145,838.168 266.812,838.501 256.5,839.5C 257.325,840.386 258.325,840.719 259.5,840.5C 282.713,846.776 306.38,851.442 330.5,854.5C 335.269,855.889 340.269,856.556 345.5,856.5C 346.833,856.5 348.167,856.5 349.5,856.5C 357.599,858.231 365.932,858.898 374.5,858.5C 467.427,863.735 556.761,848.568 642.5,813C 643.944,812.219 645.277,812.386 646.5,813.5C 629.931,839.236 608.597,860.07 582.5,876C 549.491,895.512 514.491,910.679 477.5,921.5C 474.848,921.41 472.515,922.076 470.5,923.5C 440.15,931.37 409.483,937.703 378.5,942.5C 363.332,943.909 348.332,945.576 333.5,947.5C 332.833,947.5 332.167,947.5 331.5,947.5C 313.007,948.729 294.674,950.063 276.5,951.5C 275.833,951.5 275.167,951.5 274.5,951.5C 249.509,952.304 224.509,952.638 199.5,952.5C 169.367,950.991 142.367,959.324 118.5,977.5C 78.8333,977.5 39.1667,977.5 -0.5,977.5C -0.5,892.167 -0.5,806.833 -0.5,721.5C 20.671,699.83 42.671,678.997 65.5,659C 88.7406,638.79 114.407,622.123 142.5,609C 176.498,597.219 211.498,589.719 247.5,586.5C 252.414,586.638 257.081,585.972 261.5,584.5C 314.248,579.625 366.915,573.958 419.5,567.5C 426.098,567.375 432.431,566.375 438.5,564.5C 438.833,564.5 439.167,564.5 439.5,564.5C 443.36,564.192 447.026,563.525 450.5,562.5C 451.5,562.5 452.5,562.5 453.5,562.5C 458.349,561.784 463.015,560.784 467.5,559.5C 500.472,554.89 532.806,547.724 564.5,538C 608.542,518.101 651.542,496.267 693.5,472.5C 695.415,472.784 697.081,472.451 698.5,471.5C 701.977,470.677 705.644,470.177 709.5,470C 720.828,469.5 732.162,469.333 743.5,469.5 Z"/></g>
<g><path style="opacity:0.102" fill="#09283a" d="M 530.5,269.5 C 531.499,338.331 531.833,407.331 531.5,476.5C 424.167,476.5 316.833,476.5 209.5,476.5C 209.167,407.998 209.501,339.665 210.5,271.5C 210.5,339.5 210.5,407.5 210.5,475.5C 317.167,475.5 423.833,475.5 530.5,475.5C 530.5,406.833 530.5,338.167 530.5,269.5 Z"/></g>
<g><path style="opacity:1" fill="#0493dd" d="M 743.5,539.5 C 743.5,685.5 743.5,831.5 743.5,977.5C 535.167,977.5 326.833,977.5 118.5,977.5C 142.367,959.324 169.367,950.991 199.5,952.5C 209.161,953.166 218.994,953.5 229,953.5C 244.361,953.654 259.528,952.987 274.5,951.5C 275.167,951.5 275.833,951.5 276.5,951.5C 295.119,952.004 313.453,950.67 331.5,947.5C 332.167,947.5 332.833,947.5 333.5,947.5C 348.768,947.029 363.768,945.362 378.5,942.5C 409.483,937.703 440.15,931.37 470.5,923.5C 473.152,923.59 475.485,922.924 477.5,921.5C 514.491,910.679 549.491,895.512 582.5,876C 608.597,860.07 629.931,839.236 646.5,813.5C 645.277,812.386 643.944,812.219 642.5,813C 556.761,848.568 467.427,863.735 374.5,858.5C 366.34,857.527 358.007,856.86 349.5,856.5C 348.167,856.5 346.833,856.5 345.5,856.5C 340.731,855.111 335.731,854.444 330.5,854.5C 306.38,851.442 282.713,846.776 259.5,840.5C 268.652,839.506 277.985,839.173 287.5,839.5C 301.718,839.48 315.718,838.48 329.5,836.5C 330.833,836.5 332.167,836.5 333.5,836.5C 338.731,836.556 343.731,835.889 348.5,834.5C 383.789,830.508 418.789,824.841 453.5,817.5C 457.162,817.277 460.495,816.277 463.5,814.5C 474.228,812.034 484.894,809.368 495.5,806.5C 505.96,803.848 516.293,800.681 526.5,797C 528.879,796.284 530.879,795.117 532.5,793.5C 565.075,781.546 596.075,766.379 625.5,748C 672.853,717.813 709.186,677.646 734.5,627.5C 732.579,626.359 730.579,626.192 728.5,627C 712.267,634.116 696.267,641.783 680.5,650C 652.293,665.937 622.96,679.437 592.5,690.5C 583.609,693.129 574.942,696.129 566.5,699.5C 542.397,706.187 518.064,711.187 493.5,714.5C 466.903,717.077 440.237,718.077 413.5,717.5C 407.855,716.866 402.189,716.532 396.5,716.5C 391.731,715.111 386.731,714.444 381.5,714.5C 379.073,714.477 376.74,713.977 374.5,713C 463.928,692.861 549.262,661.861 630.5,620C 671.715,598.067 709.381,571.234 743.5,539.5 Z"/></g>
<g><path style="opacity:1" fill="#7ec6ed" d="M 467.5,559.5 C 463.015,560.784 458.349,561.784 453.5,562.5C 457.787,560.265 462.454,559.265 467.5,559.5 Z"/></g>
<g><path style="opacity:1" fill="#90ceef" d="M 450.5,562.5 C 447.026,563.525 443.36,564.192 439.5,564.5C 442.845,562.783 446.511,562.116 450.5,562.5 Z"/></g>
<g><path style="opacity:1" fill="#b9e0f5" d="M 438.5,564.5 C 432.431,566.375 426.098,567.375 419.5,567.5C 425.556,565.547 431.889,564.547 438.5,564.5 Z"/></g>
<g><path style="opacity:1" fill="#b1ddf4" d="M 261.5,584.5 C 257.081,585.972 252.414,586.638 247.5,586.5C 251.9,584.896 256.566,584.229 261.5,584.5 Z"/></g>
<g><path style="opacity:1" fill="#bce1f5" d="M 592.5,690.5 C 584.362,694.659 575.696,697.659 566.5,699.5C 574.942,696.129 583.609,693.129 592.5,690.5 Z"/></g>
<g><path style="opacity:1" fill="#acdbf3" d="M 381.5,714.5 C 386.731,714.444 391.731,715.111 396.5,716.5C 391.25,716.698 386.25,716.031 381.5,714.5 Z"/></g>
<g><path style="opacity:1" fill="#d3ecf9" d="M 493.5,714.5 C 484.087,716.566 474.42,717.733 464.5,718C 447.328,718.828 430.328,718.662 413.5,717.5C 440.237,718.077 466.903,717.077 493.5,714.5 Z"/></g>
<g><path style="opacity:1" fill="#5ab4e7" d="M 532.5,793.5 C 530.879,795.117 528.879,796.284 526.5,797C 516.293,800.681 505.96,803.848 495.5,806.5C 507.683,801.993 520.017,797.66 532.5,793.5 Z"/></g>
<g><path style="opacity:1" fill="#90ceef" d="M 463.5,814.5 C 460.495,816.277 457.162,817.277 453.5,817.5C 456.505,815.723 459.838,814.723 463.5,814.5 Z"/></g>
<g><path style="opacity:1" fill="#68bbe9" d="M 348.5,834.5 C 343.731,835.889 338.731,836.556 333.5,836.5C 338.234,834.855 343.234,834.189 348.5,834.5 Z"/></g>
<g><path style="opacity:1" fill="#69bcea" d="M 329.5,836.5 C 315.718,838.48 301.718,839.48 287.5,839.5C 287.5,839.167 287.5,838.833 287.5,838.5C 301.487,837.578 315.487,836.911 329.5,836.5 Z"/></g>
<g><path style="opacity:1" fill="#a3d8f2" d="M 287.5,838.5 C 287.5,838.833 287.5,839.167 287.5,839.5C 277.985,839.173 268.652,839.506 259.5,840.5C 258.325,840.719 257.325,840.386 256.5,839.5C 266.812,838.501 277.145,838.168 287.5,838.5 Z"/></g>
<g><path style="opacity:1" fill="#73c0eb" d="M 330.5,854.5 C 335.731,854.444 340.731,855.111 345.5,856.5C 340.269,856.556 335.269,855.889 330.5,854.5 Z"/></g>
<g><path style="opacity:1" fill="#77c2ec" d="M 349.5,856.5 C 358.007,856.86 366.34,857.527 374.5,858.5C 365.932,858.898 357.599,858.231 349.5,856.5 Z"/></g>
<g><path style="opacity:1" fill="#86caee" d="M 477.5,921.5 C 475.485,922.924 473.152,923.59 470.5,923.5C 472.515,922.076 474.848,921.41 477.5,921.5 Z"/></g>
<g><path style="opacity:1" fill="#7ac4ec" d="M 378.5,942.5 C 363.768,945.362 348.768,947.029 333.5,947.5C 348.332,945.576 363.332,943.909 378.5,942.5 Z"/></g>
<g><path style="opacity:1" fill="#62b8e8" d="M 331.5,947.5 C 313.453,950.67 295.119,952.004 276.5,951.5C 294.674,950.063 313.007,948.729 331.5,947.5 Z"/></g>
<g><path style="opacity:1" fill="#33a5e2" d="M 274.5,951.5 C 259.528,952.987 244.361,953.654 229,953.5C 218.994,953.5 209.161,953.166 199.5,952.5C 224.509,952.638 249.509,952.304 274.5,951.5 Z"/></g>
</svg>
